<svg xmlns="http://www.w3.org/2000/svg" viewBox="0 0 10240 10240" width="1024" height="1024">
  <g fill-rule="nonzero">
    <g fill="#C1DBB3">
    <path d="M4905 9801 c-508 -268 -1036 -622 -1504 -1007 -5 -5 37 -76 179 -299 102 -159 272 -433 328 -525 12 -18 25 -9 197 134 235 196 532 406 793 559 62 37 120 67 129 67 49 0 557 -332 808 -528 724 -565 1275 -1233 1671 -2022 447 -894 686 -1967 688 -3094 1 -365 91 -298 -844 -625 -124 -43 -418 -146 -655 -229 -390 -137 -1567 -545 -1640 -569 -33 -11 -21 -15 -805 260 -657 231 -936 327 -950 327 -15 0 -1150 -564 -1209 -601 -35 -21 -35 -21 -5 -33 16 -7 76 -29 134 -49 151 -52 1390 -480 1685 -582 304 -105 631 -219 904 -315 132 -47 212 -70 230 -67 14 3 195 64 401 136 487 171 665 232 1310 455 294 102 672 233 840 291 168 59 375 131 460 160 85 29 310 108 500 175 190 67 404 142 476 166 132 45 132 45 139 262 11 308 -1 1086 -20 1347 -77 1062 -285 1945 -649 2759 -378 842 -931 1611 -1596 2220 -432 394 -849 706 -1330 993 -197 117 -526 293 -547 293 -5 0 -57 -27 -118 -59z"/>
    <path d="M2275 7573 c-503 -676 -884 -1473 -1095 -2297 -55 -213 -110 -536 -92 -536 5 0 58 39 118 86 188 150 344 247 490 305 88 35 309 93 395 104 31 4 61 10 67 14 7 4 38 85 71 181 156 459 393 936 669 1349 46 67 86 129 88 136 3 7 -67 102 -156 211 -332 410 -432 533 -449 548 -17 15 -23 9 -106 -101z"/>
    </g>
    <g fill="#FE5D26">
    <path d="M922 9679 c8 -23 593 -758 987 -1241 234 -286 234 -286 845 -591 336 -168 621 -309 634 -312 12 -4 22 -2 22 4 0 5 -31 56 -69 113 -62 91 -171 234 -636 833 -69 88 -182 234 -252 325 -471 611 -528 674 -685 752 -170 84 -282 107 -548 113 -113 3 -227 7 -253 9 -26 2 -46 -1 -45 -5z"/>
    <path d="M2045 9502 c-4 -4 133 -188 454 -613 330 -436 602 -798 834 -1109 213 -286 231 -307 285 -337 105 -57 727 -379 745 -386 9 -3 17 -2 17 3 0 23 -329 565 -636 1045 -45 72 -156 246 -246 388 -308 489 -395 615 -482 702 -185 187 -387 268 -736 294 -187 15 -231 17 -235 13z"/>
    <path d="M2320 7961 c0 -5 34 -57 77 -117 180 -256 466 -625 992 -1279 453 -562 480 -598 486 -627 10 -43 -26 -110 -74 -136 -38 -22 -46 -22 -447 -22 -360 0 -420 -3 -499 -19 -276 -57 -506 -225 -621 -453 -19 -37 -34 -70 -34 -73 0 -3 232 -4 515 -3 283 2 515 0 515 -4 0 -5 -19 -8 -42 -8 -24 0 -99 -7 -168 -15 -69 -8 -307 -33 -530 -55 -549 -55 -665 -75 -818 -140 -205 -87 -396 -248 -525 -441 -86 -129 -234 -455 -215 -474 2 -2 159 29 348 69 190 41 518 111 730 156 1077 228 1201 255 1275 277 18 5 18 4 6 -11 -28 -33 -88 -54 -426 -145 -1097 -297 -1599 -438 -1700 -478 -284 -112 -499 -308 -639 -583 -90 -176 -138 -344 -175 -612 -25 -173 -27 -233 -9 -225 240 101 543 223 1563 632 677 271 1242 498 1256 505 14 6 68 60 121 118 145 162 150 168 142 152 -4 -8 -26 -40 -49 -70 -23 -30 -66 -89 -97 -130 -55 -76 -55 -76 -784 -439 -1119 -556 -1476 -744 -1636 -859 -249 -178 -460 -485 -573 -832 -67 -208 -76 -273 -82 -583 -3 -152 -2 -277 1 -277 3 0 131 65 284 144 464 240 663 342 1272 651 322 164 626 319 675 345 50 26 216 112 370 190 154 79 330 169 390 200 61 32 277 144 480 250 204 106 393 208 422 227 64 42 109 96 253 298 62 88 152 214 199 280 172 243 381 528 621 850 368 492 433 595 498 790 46 141 65 261 65 420 0 267 -74 508 -226 735 -70 105 -249 279 -382 372 -357 248 -1959 1090 -2676 1407 -122 54 -129 56 -129 42z"/>
    <path d="M3979 7862 c27 -53 142 -245 327 -547 88 -143 170 -278 183 -301 20 -36 51 -57 269 -184 337 -196 435 -262 593 -402 300 -265 473 -670 456 -1068 -14 -329 -119 -589 -395 -973 -306 -425 -294 -407 -276 -436 9 -14 63 -91 119 -171 56 -80 160 -228 231 -330 189 -268 284 -407 284 -414 0 -4 -42 -57 -93 -119 -52 -62 -115 -139 -142 -172 -27 -33 -75 -93 -108 -133 -33 -40 -57 -75 -54 -78 12 -12 1319 -17 1414 -5 108 13 213 47 291 93 73 42 203 173 267 266 48 71 53 75 136 111 230 101 421 276 545 498 31 55 124 255 124 267 0 2 -89 6 -197 9 -213 6 -354 25 -582 77 -73 16 -135 30 -137 30 -2 0 -4 260 -4 578 0 593 -9 826 -36 992 -88 531 -380 1058 -774 1392 -318 271 -630 416 -1740 808 -91 32 -285 101 -431 154 -147 53 -272 96 -278 96 -7 0 -4 -14 8 -38z"/>
    </g>
  </g>
</svg>
